<svg xmlns="http://www.w3.org/2000/svg" xml:space="preserve" viewBox="0 0 1007 1007"><path fill="#45210e" d="M560 1008H1V1h1007v1007zM440.744 105.242c-2.171 2.068-4.4 4.08-6.506 6.21-37.728 38.172-61.962 83.487-70.882 136.488-2.36 14.022-4.41 28.733-2.753 42.67 4.427 37.255 34.307 67.296 71.232 74.22 4.888.918 9.902 1.163 15.929 1.84-1.51-2.812-2.256-4.26-3.054-5.68-5.192-9.229-7.825-19.25-7.255-29.712 2.135-39.158 21.36-67.124 56.64-83.876 9.45-4.487 19.648-8.538 30.279-6.946 24.17 3.62 44.33 15.1 59.627 34.257 15.847 19.846 23.55 42.496 19.763 67.964-1.189 8-5.036 15.605-7.828 23.867 4.201-.47 8.805-.785 13.34-1.522 37.487-6.093 69.118-38.075 72.515-75.671 1.296-14.339-.387-29.378-3.24-43.59-17.973-89.498-69.792-152.094-152.662-189.532-3.326-1.502-6.153-1.46-9.47-.029-27.778 11.987-52.908 28.031-75.675 49.042M286.677 492.678c.653 1.116 1.159 2.355 1.98 3.328 21.113 24.994 46.099 45.217 75.389 59.805 10.361 5.161 21.069 10.782 32.246 12.939 36.571 7.055 73.5 6.794 110.317 1.2 36.274-5.51 71.028-15.995 103.646-33.011 25.725-13.42 55.49-9.83 77.058 9.673 3.51 3.175 6.566 6.854 9.902 10.373 21.959-19.3 40.836-40.8 56.705-65.068-1.04-.96-1.633-1.53-2.25-2.072-35.017-30.749-74.768-53.079-119.292-66.822-2.664-.822-5.954-.861-8.652-.14-32.782 8.757-65.488 17.797-98.277 26.522-3.148.838-6.914.759-10.077-.083-32.774-8.728-65.474-17.735-98.23-26.53-2.275-.611-5.027-.785-7.233-.108-46.038 14.128-87.032 37.24-123.232 69.994M638.194 649.76c-19.324 6.256-39.153 9.19-59.45 8.876-17.423-.268-34.364-3.702-51.178-7.964-2.044-.518-4.312-.811-6.37-.501-8.386 1.263-16.682 3.298-25.102 4.128-15.212 1.5-30.578 3.957-45.718 3.112-29.19-1.63-56.25-11.347-81.231-26.638-1.137-.696-2.374-1.228-4.265-2.194 14.942 49.084 37.506 93.01 68.722 132.546 35.26 44.657 41.712 93.365 19.106 145.655-3.127 7.234-7.496 13.93-11.284 20.878 131.798-36.76 233.763-162.329 239.669-296.985a37080 37080 0 0 1-42.9 19.087m-186.697-67.538c-9.145-.422-18.353-.312-27.42-1.393-12.676-1.511-25.858-2.147-37.744-6.27-31.995-11.098-59.986-29.321-84.622-52.609-1.69-1.597-3.418-3.152-5.836-5.378.152 1.886.106 2.564.27 3.186 8.166 30.822 23.303 57.835 46.464 79.656 40.378 38.04 87.656 55.359 143.827 47.992 69.257-9.082 132.412-32.884 189.265-73.42 4.976-3.548 9.777-7.339 14.882-11.185-13.558-18.139-31.007-26.474-53.02-25.35-11.518.589-21.222 6.065-31.328 10.839-48.638 22.973-99.979 34.005-154.738 33.932m88.18-146.114 116.081-31.589-59.88-27.53c-1.215 2.034-2.127 3.603-3.08 5.148-6.202 10.062-13.872 18.71-24.13 24.816-33.875 20.166-76.379 15.432-106.33-12.076-5.955-5.47-11.225-11.688-16.936-17.693l-58.576 27.23c2.444.743 3.82 1.201 5.219 1.583 37.383 10.192 74.877 20 112.088 30.783 11.65 3.375 22.551 4.582 33.812-.142.307-.129.626-.228 1.732-.53M636.17 641.72c57.035-20.402 93.583-59.754 109.617-118.173-55.975 59.895-123.443 100.518-203.282 121.826 27.618 7.5 61.135 6.171 93.665-3.653"/><path fill="#f4ba17" d="M441.016 105.015C463.51 84.231 488.64 68.187 516.42 56.2c3.316-1.43 6.143-1.473 9.469.029 82.87 37.438 134.689 100.034 152.661 189.532 2.854 14.212 4.537 29.251 3.241 43.59-3.397 37.596-35.028 69.578-72.515 75.67-4.535.738-9.139 1.054-13.34 1.523 2.792-8.262 6.64-15.867 7.828-23.867 3.787-25.468-3.916-48.118-19.763-67.964-15.298-19.158-35.458-30.637-59.627-34.257-10.631-1.592-20.829 2.459-30.28 6.946-35.279 16.752-54.504 44.718-56.639 83.876-.57 10.463 2.063 20.483 7.255 29.713.798 1.419 1.544 2.867 3.054 5.679-6.027-.677-11.04-.922-15.93-1.84-36.924-6.924-66.804-36.965-71.231-74.22-1.656-13.937.393-28.648 2.753-42.67 8.92-53.001 33.154-98.316 70.882-136.488 2.107-2.13 4.335-4.142 6.778-6.437m82.78 95.95c-.817-.159-1.643-.28-2.449-.48-9.382-2.335-15.607-10.045-15.332-18.973.277-8.967 6.95-16.398 16.395-18.12 6.59-1.203 12.015 1.46 16.743 5.375l7.238-6.832c-11.183-12.066-31.065-12.008-42.626-.098-11.43 11.774-10.664 31.22 1.652 41.983 12.04 10.523 31.776 9.689 40.677-1.63l-6.667-7.014.152 1.466c-4.98 1.448-9.961 2.896-15.783 4.322M286.858 492.403c36.02-32.48 77.013-55.59 123.051-69.719 2.206-.677 4.958-.503 7.232.107 32.757 8.796 65.457 17.803 98.231 26.53 3.163.843 6.929.922 10.077.084 32.79-8.725 65.495-17.765 98.277-26.522 2.698-.721 5.988-.682 8.652.14 44.524 13.743 84.275 36.073 119.292 66.822.617.542 1.21 1.113 2.25 2.072-15.869 24.267-34.746 45.768-56.705 65.068-3.336-3.52-6.391-7.198-9.902-10.373-21.569-19.504-51.333-23.094-77.058-9.673-32.618 17.016-67.372 27.501-103.646 33.012-36.817 5.593-73.746 5.854-110.317-1.201-11.177-2.157-21.885-7.778-32.246-12.939-29.29-14.588-54.276-34.81-75.388-59.805-.822-.973-1.328-2.212-1.8-3.603M638.56 649.607c14.572-6.48 28.779-12.808 42.533-18.935-5.906 134.656-107.871 260.226-239.672 296.984 3.791-6.947 8.16-13.643 11.287-20.877 22.606-52.29 16.154-100.998-19.106-145.655-31.216-39.536-53.78-83.462-68.722-132.546 1.89.966 3.128 1.498 4.265 2.194 24.98 15.29 52.04 25.009 81.23 26.638 15.14.845 30.507-1.611 45.719-3.112 8.42-.83 16.716-2.865 25.103-4.128 2.057-.31 4.325-.017 6.369.501 16.814 4.262 33.755 7.696 51.178 7.964 20.297.314 40.126-2.62 59.815-9.028"/><path fill="#f3b917" d="M451.997 582.225c54.258.07 105.6-10.963 154.237-33.936 10.106-4.774 19.81-10.25 31.329-10.839 22.012-1.124 39.46 7.211 53.019 25.35-5.105 3.846-9.906 7.638-14.882 11.185-56.853 40.536-120.008 64.338-189.265 73.42-56.171 7.367-103.45-9.951-143.827-47.992-23.16-21.82-38.298-48.834-46.463-79.656-.165-.622-.12-1.3-.271-3.186 2.418 2.226 4.146 3.781 5.836 5.378 24.636 23.288 52.627 41.511 84.622 52.61 11.886 4.122 25.068 4.758 37.744 6.27 9.067 1.08 18.275.97 27.92 1.396"/><path fill="#f2b817" d="M539.28 436.202c-.71.207-1.029.306-1.336.435-11.26 4.724-22.162 3.517-33.812.142-37.211-10.782-74.705-20.591-112.088-30.783-1.398-.382-2.775-.84-5.22-1.584l58.577-27.23c5.711 6.005 10.98 12.224 16.937 17.694 29.95 27.508 72.454 32.242 106.328 12.076 10.26-6.107 17.93-14.754 24.131-24.816.953-1.545 1.865-3.114 3.08-5.148l59.88 27.53c-39.523 10.756-77.802 21.172-116.477 31.684M635.79 641.836c-32.15 9.708-65.668 11.036-93.286 3.537 79.84-21.308 147.307-61.931 203.282-121.826-16.034 58.419-52.582 97.77-109.996 118.29"/><path fill="#48240f" d="M524.217 200.975c5.401-1.437 10.382-2.885 15.362-4.333l-.152-1.466 6.667 7.013c-8.901 11.32-28.637 12.154-40.677 1.631-12.316-10.764-13.082-30.21-1.652-41.983 11.561-11.91 31.443-11.968 42.626.098l-7.238 6.832c-4.728-3.914-10.154-6.578-16.743-5.376-9.446 1.723-16.118 9.154-16.395 18.12-.275 8.93 5.95 16.64 15.332 18.973.806.2 1.632.322 2.87.49"/></svg>